<svg width="18" height="18" viewBox="0 0 18 18" fill="none" xmlns="http://www.w3.org/2000/svg">
<path fill-rule="evenodd" clip-rule="evenodd" d="M7.66667 1.75C4.39898 1.75 1.75 4.39898 1.75 7.66667C1.75 10.9344 4.39898 13.5833 7.66667 13.5833C10.9344 13.5833 13.5833 10.9344 13.5833 7.66667C13.5833 4.39898 10.9344 1.75 7.66667 1.75ZM0.25 7.66667C0.25 3.57055 3.57055 0.25 7.66667 0.25C11.7628 0.25 15.0833 3.57055 15.0833 7.66667C15.0833 11.7628 11.7628 15.0833 7.66667 15.0833C3.57055 15.0833 0.25 11.7628 0.25 7.66667Z" fill="white"/>
<path fill-rule="evenodd" clip-rule="evenodd" d="M12.0252 12.0252C12.3181 11.7323 12.793 11.7323 13.0859 12.0252L17.5303 16.4697C17.8232 16.7626 17.8232 17.2374 17.5303 17.5303C17.2374 17.8232 16.7625 17.8232 16.4697 17.5303L12.0252 13.0859C11.7323 12.793 11.7323 12.3181 12.0252 12.0252Z" fill="white"/>
<path fill-rule="evenodd" clip-rule="evenodd" d="M13.489 10.918C13.9025 10.9426 14.2177 11.2977 14.1931 11.7112C14.1535 12.3767 14.0203 13.0217 13.5434 13.4941C13.0805 13.9527 12.4312 14.1079 11.7562 14.1891C11.345 14.2385 10.9715 13.9452 10.922 13.534C10.8726 13.1227 11.1659 12.7493 11.5771 12.6998C12.2026 12.6246 12.4054 12.5101 12.4878 12.4285C12.5562 12.3607 12.6617 12.195 12.6958 11.6221C12.7204 11.2086 13.0755 10.8934 13.489 10.918Z" fill="white"/>
</svg>
